<svg width="20" height="14" viewBox="0 0 20 14" fill="none" xmlns="http://www.w3.org/2000/svg">
<path d="M19.7312 8.04025C19.6612 8.08975 19.5815 8.12576 19.4967 8.14624C19.4119 8.16671 19.3237 8.17125 19.237 8.15958C19.1504 8.14791 19.067 8.12027 18.9917 8.07824C18.9163 8.03621 18.8505 7.98061 18.798 7.91461C18.3962 7.40566 17.8733 6.99273 17.2712 6.70904C16.6692 6.42535 16.0049 6.27884 15.3318 6.2813C15.155 6.2813 14.9854 6.21511 14.8604 6.0973C14.7354 5.97949 14.6652 5.81971 14.6652 5.6531C14.6652 5.48649 14.7354 5.32671 14.8604 5.2089C14.9854 5.09109 15.155 5.0249 15.3318 5.0249C15.7058 5.02487 16.0723 4.92599 16.3897 4.7395C16.707 4.553 16.9626 4.28637 17.1272 3.96988C17.2918 3.65339 17.359 3.29973 17.321 2.94907C17.2831 2.59842 17.1415 2.26482 16.9125 1.98617C16.6834 1.70753 16.3761 1.495 16.0253 1.37273C15.6745 1.25047 15.2943 1.22336 14.928 1.2945C14.5617 1.36563 14.2239 1.53215 13.953 1.77515C13.682 2.01815 13.4888 2.32788 13.3953 2.66916C13.3734 2.74908 13.3351 2.82415 13.2824 2.8901C13.2297 2.95604 13.1638 3.01156 13.0884 3.05349C13.0129 3.09541 12.9295 3.12293 12.8427 3.13446C12.756 3.14598 12.6677 3.1413 12.5829 3.12068C12.4981 3.10006 12.4185 3.06389 12.3485 3.01425C12.2785 2.96462 12.2196 2.90248 12.1751 2.83138C12.1306 2.76029 12.1014 2.68163 12.0892 2.59991C12.077 2.51818 12.0819 2.43498 12.1038 2.35506C12.2336 1.88181 12.4788 1.44363 12.8199 1.07539C13.161 0.707148 13.5886 0.419015 14.0686 0.233915C14.5487 0.0488147 15.0679 -0.0281442 15.5851 0.00916173C16.1023 0.0464677 16.6031 0.197009 17.0476 0.448807C17.4922 0.700605 17.8683 1.04671 18.1459 1.45958C18.4236 1.87245 18.5951 2.3407 18.647 2.82706C18.6988 3.31342 18.6295 3.80447 18.4445 4.26113C18.2596 4.7178 17.964 5.12748 17.5815 5.45758C18.4879 5.82742 19.2758 6.41433 19.8671 7.15999C19.9196 7.22616 19.9577 7.30144 19.9793 7.38152C20.0009 7.4616 20.0056 7.54491 19.9929 7.62668C19.9803 7.70845 19.9507 7.78707 19.9058 7.85803C19.8609 7.929 19.8016 7.99092 19.7312 8.04025ZM15.2418 12.8774C15.2883 12.9489 15.3192 13.0285 15.3326 13.1114C15.3459 13.1943 15.3416 13.2789 15.3197 13.3603C15.2978 13.4416 15.2588 13.5179 15.2051 13.5848C15.1514 13.6517 15.084 13.7078 15.007 13.7498C14.9299 13.7917 14.8447 13.8187 14.7563 13.8291C14.668 13.8396 14.5784 13.8332 14.4927 13.8104C14.407 13.7877 14.327 13.749 14.2575 13.6966C14.1879 13.6443 14.1302 13.5793 14.0877 13.5056C13.6678 12.8357 13.0698 12.2805 12.3527 11.8949C11.6356 11.5092 10.8243 11.3064 9.99865 11.3064C9.17303 11.3064 8.36167 11.5092 7.6446 11.8949C6.92753 12.2805 6.32952 12.8357 5.90955 13.5056C5.86788 13.5806 5.81053 13.647 5.74094 13.7006C5.67135 13.7543 5.59097 13.7941 5.50462 13.8177C5.41828 13.8413 5.32777 13.8482 5.23852 13.838C5.14927 13.8278 5.06314 13.8007 4.98531 13.7583C4.90747 13.7159 4.83955 13.6591 4.78561 13.5913C4.73167 13.5235 4.69284 13.4461 4.67145 13.3638C4.65006 13.2816 4.64656 13.196 4.66115 13.1124C4.67574 13.0288 4.70813 12.9489 4.75636 12.8774C5.40261 11.8309 6.38799 11.0074 7.56769 10.5279C6.90387 10.0489 6.41602 9.38598 6.17269 8.6322C5.92936 7.87842 5.9428 7.07172 6.21111 6.32551C6.47943 5.5793 6.98913 4.93109 7.66857 4.47199C8.34801 4.01289 9.16303 3.76599 9.99907 3.76599C10.8351 3.76599 11.6501 4.01289 12.3296 4.47199C13.009 4.93109 13.5187 5.5793 13.787 6.32551C14.0553 7.07172 14.0688 7.87842 13.8254 8.6322C13.5821 9.38598 13.0943 10.0489 12.4304 10.5279C13.6101 11.0074 14.5955 11.8309 15.2418 12.8774ZM9.99907 10.0505C10.5264 10.0505 11.0419 9.90311 11.4804 9.627C11.9189 9.3509 12.2606 8.95845 12.4625 8.4993C12.6643 8.04015 12.7171 7.53491 12.6142 7.04747C12.5113 6.56004 12.2574 6.1123 11.8845 5.76088C11.5116 5.40946 11.0365 5.17014 10.5192 5.07319C10.002 4.97623 9.46591 5.02599 8.9787 5.21618C8.49149 5.40637 8.07506 5.72844 7.78208 6.14166C7.4891 6.55489 7.33272 7.04071 7.33272 7.5377C7.33272 8.20413 7.61363 8.84327 8.11367 9.31451C8.61371 9.78575 9.29191 10.0505 9.99907 10.0505ZM5.33295 5.6531C5.33295 5.48649 5.26272 5.32671 5.13771 5.2089C5.0127 5.09109 4.84316 5.0249 4.66637 5.0249C4.29235 5.02487 3.92584 4.92599 3.60847 4.7395C3.29109 4.553 3.03557 4.28637 2.87094 3.96988C2.7063 3.65339 2.63915 3.29973 2.6771 2.94907C2.71505 2.59842 2.85659 2.26482 3.08564 1.98617C3.31469 1.70753 3.62207 1.495 3.97286 1.37273C4.32366 1.25047 4.7038 1.22336 5.07012 1.2945C5.43644 1.36563 5.77425 1.53215 6.04518 1.77515C6.31611 2.01815 6.5093 2.32788 6.6028 2.66916C6.647 2.83056 6.75742 2.96881 6.90978 3.05349C7.06213 3.13816 7.24394 3.16233 7.41521 3.12068C7.58647 3.07903 7.73317 2.97496 7.82302 2.83138C7.91287 2.6878 7.93851 2.51647 7.89432 2.35506C7.76453 1.88181 7.51934 1.44363 7.17824 1.07539C6.83715 0.707148 6.40956 0.419015 5.92951 0.233915C5.44946 0.0488147 4.93019 -0.0281442 4.41303 0.00916173C3.89586 0.0464677 3.39507 0.197009 2.95051 0.448807C2.50594 0.700605 2.12987 1.04671 1.85222 1.45958C1.57456 1.87245 1.40299 2.3407 1.35115 2.82706C1.29931 3.31342 1.36863 3.80447 1.5536 4.26113C1.73858 4.7178 2.03409 5.12748 2.41663 5.45758C1.51114 5.82777 0.724095 6.41465 0.13357 7.15999C0.0273859 7.29328 -0.018266 7.46086 0.00665772 7.62587C0.0315815 7.79087 0.125039 7.93979 0.266471 8.03986C0.407903 8.13993 0.585724 8.18295 0.760816 8.15946C0.935907 8.13598 1.09393 8.0479 1.20011 7.91461C1.60188 7.40566 2.12485 6.99273 2.72689 6.70904C3.32894 6.42535 3.99326 6.27884 4.66637 6.2813C4.84316 6.2813 5.0127 6.21511 5.13771 6.0973C5.26272 5.97949 5.33295 5.81971 5.33295 5.6531Z" fill="black"/>
</svg>
